<svg width="385" height="212" viewBox="0 0 385 212" fill="none" xmlns="http://www.w3.org/2000/svg">
<g clip-path="url(#clip0_102_149)">
<path fill-rule="evenodd" clip-rule="evenodd" d="M136.242 56.117C135.281 55.9606 143.716 53.2555 152.248 52.667C160.498 52.0978 177.852 56.5149 170.351 66.7481C168.286 69.5656 161.118 71.0797 161.118 71.0797C164.355 61.6181 152.599 57.7548 145.766 56.803C141.997 56.278 138.401 56.4682 136.242 56.117Z" fill="white"/>
<path fill-rule="evenodd" clip-rule="evenodd" d="M88.1494 67.4192C88.1443 67.0273 89.7144 68.6932 96.9306 67.4641C99.5294 67.0215 105.911 64.9387 109.731 63.0866C113.971 61.0311 126.522 54.3318 131.588 52.2023C153.106 43.1565 172.305 47.8452 175.517 57.1226C179.503 68.6381 166.417 71.6336 163.673 71.7643C160.609 71.9103 175.098 70.06 174.121 59.9222C173.383 52.2602 162.374 50.0149 151.159 51.0827C142.67 51.8907 134.063 55.0365 129.704 56.6545C119.216 60.5477 111.121 66.7871 99.8355 68.7386C93.601 69.8172 88.1603 68.2596 88.1494 67.4192Z" fill="#FF6600"/>
<path fill-rule="evenodd" clip-rule="evenodd" d="M97.2399 48.3358C95.6505 48.454 85.0328 53.1381 84.7428 58.5876C84.4528 64.0372 86.6537 67.9105 113.574 58.0766C120.492 55.5499 125.648 51.9822 124.717 52.1037C122.131 52.4419 104.022 56.2359 101.602 56.7319C98.3448 57.3996 95.7531 56.545 99.0109 54.3477C102.269 52.1504 100.118 48.1218 97.2399 48.3358Z" fill="white" stroke="white" stroke-width="1.88976" stroke-miterlimit="22.9256"/>
<path fill-rule="evenodd" clip-rule="evenodd" d="M102.567 45.0042C102.028 45.3114 103.116 50.4455 102.075 52.7011C101.033 54.9565 102.736 53.8602 109.84 52.705C118.447 51.3054 132.952 47.6518 146.753 46.5278C163.975 45.1252 174.669 51.5017 173.753 50.7188C167.795 45.6271 158.397 43.4458 149.487 43.0771C130.916 42.3088 103.27 44.6036 102.567 45.0042Z" fill="white" stroke="white" stroke-width="1.88976" stroke-miterlimit="22.9256"/>
<path fill-rule="evenodd" clip-rule="evenodd" d="M102.117 42.9266C102.22 43.1689 154.308 41.7334 158.436 40.3262C162.564 38.9191 159.752 15.1761 164.644 6.50605C170.989 -4.73921 99.6287 3.07489 97.6331 6.25476C96.034 8.80205 102.117 42.9266 102.117 42.9266Z" fill="white" stroke="white" stroke-width="1.88976" stroke-miterlimit="22.9256"/>
<path d="M11.9839 113.963L22.5296 113.968L35.5952 153.391L48.8939 113.982L59.2857 113.987L68.8013 170.504L58.4097 170.498L52.3471 134.806L40.2819 170.489L30.7753 170.484L18.901 134.788L12.6859 170.475L2.17871 170.469L11.9839 113.963Z" fill="white"/>
<path d="M191.024 114.055L222.315 114.071L222.309 124.674L211.995 124.669L211.971 170.577L201.041 170.572L201.064 124.663L191.019 124.658L191.024 114.055ZM256.454 112.667C264.461 112.671 271.335 115.569 277.08 121.36C282.85 127.151 285.733 134.209 285.729 142.533C285.725 150.779 282.872 157.757 277.174 163.465C271.5 169.173 264.609 172.026 256.501 172.022C248.008 172.017 240.954 169.081 235.337 163.213C229.721 157.346 226.915 150.378 226.919 142.31C226.922 136.906 228.233 131.938 230.853 127.406C233.472 122.874 237.066 119.291 241.634 116.655C246.229 113.994 251.169 112.664 256.454 112.667ZM256.334 123.194C251.1 123.191 246.698 125.007 243.13 128.642C239.561 132.277 237.776 136.899 237.772 142.508C237.769 148.757 240.012 153.701 244.5 157.34C247.988 160.185 251.99 161.608 256.506 161.611C261.613 161.613 265.963 159.772 269.557 156.085C273.151 152.399 274.949 147.854 274.952 142.45C274.955 137.072 273.148 132.525 269.532 128.809C265.916 125.068 261.517 123.196 256.334 123.194ZM295.943 114.109L326.848 114.125L326.843 124.651L306.637 124.641L306.631 134.86L326.838 134.87L326.832 145.205L306.626 145.194L306.619 160.061L326.825 160.072L326.82 170.636L295.914 170.62L295.943 114.109ZM333.238 114.128L345.361 114.134L357.206 132.235L369.186 114.147L381.309 114.153L363.283 141.497L382.396 170.665L370.273 170.659L357.197 150.79L344.216 170.645L332.015 170.639L351.159 141.491L333.238 114.128Z" fill="white"/>
<path d="M130.793 66.0798C145.203 66.0869 157.578 71.303 167.918 81.7269C178.305 92.1514 183.494 104.855 183.487 119.838C183.479 134.681 178.346 147.241 168.087 157.517C157.875 167.792 145.471 172.926 130.876 172.918C115.589 172.911 102.891 167.625 92.7812 157.063C82.6724 146.501 77.6212 133.959 77.6289 119.437C77.634 109.71 79.9941 100.767 84.7091 92.6099C89.424 84.4527 95.8933 78.0018 104.117 73.2577C112.387 68.4676 121.279 66.0747 130.793 66.0798ZM130.575 85.0273C121.154 85.0221 113.231 88.2912 106.808 94.8343C100.385 101.378 97.1702 109.697 97.1651 119.793C97.1593 131.042 101.196 139.941 109.275 146.491C115.554 151.612 122.757 154.174 130.886 154.178C140.077 154.183 147.907 150.868 154.377 144.232C160.847 137.597 164.084 129.416 164.088 119.689C164.093 110.008 160.842 101.823 154.333 95.1354C147.824 88.4013 139.905 85.0318 130.575 85.0273Z" fill="white"/>
<path d="M172.686 84.5042C172.524 84.3101 172.368 84.1519 172.176 83.9867C172.175 83.9848 172.168 83.9797 172.165 83.9777C172.049 83.7785 171.915 83.596 171.762 83.4231C167.535 78.7789 162.493 75.4932 156.862 72.768C150.396 69.9351 145.072 68.7579 138.001 68.5062C131.092 68.478 125.864 69.4426 119.451 72.0173C113.519 74.594 109.366 77.384 104.8 81.9557C100.533 86.5 97.8855 90.5805 95.6942 96.4114C94.8966 98.9068 91.8012 111.904 95.6011 113.321C96.8986 113.06 102.285 102.888 103.918 100.667C106.778 96.9834 109.412 94.4829 113.302 91.8851C117.041 89.5288 120.21 88.1876 124.525 87.2032C128.839 86.3629 132.211 86.3033 136.548 87.0008C140.697 87.795 143.729 88.9383 147.309 91.1576C150.815 93.4857 152.36 95.0414 154.98 98.1471C155.065 98.2445 155.16 98.3252 155.258 98.4085C155.259 98.4097 155.263 98.4149 155.263 98.4149C155.336 98.5308 155.406 98.6403 155.493 98.7473C158.149 101.802 159.455 103.587 161.204 107.387C162.843 111.26 163.502 114.434 163.642 118.645C163.656 123.031 163.072 126.345 161.568 130.467C159.921 134.571 158.103 137.481 155.186 140.803C152.009 144.233 149.126 146.442 145.034 148.688C142.582 149.952 131.677 153.678 131.216 154.917C132.027 158.885 145.371 157.858 147.966 157.46C154.075 156.209 158.529 154.232 163.69 150.734C168.922 146.947 172.336 143.281 175.808 137.837C179.354 131.917 181.124 126.909 182.172 120.094C183.026 113.081 182.689 107.651 180.893 100.833C179.076 94.8679 176.615 89.3879 172.686 84.5042Z" fill="#FF6600"/>
<path d="M132.383 125.043C135.506 125.045 138.04 122.519 138.041 119.401C138.043 116.284 135.512 113.755 132.388 113.754C129.265 113.752 126.731 116.278 126.729 119.396C126.728 122.514 129.259 125.042 132.383 125.043Z" fill="white" stroke="white" stroke-width="0.514351" stroke-miterlimit="22.9256"/>
<path fill-rule="evenodd" clip-rule="evenodd" d="M161.219 98.3135L151.763 108.045L142.307 117.776L139.597 114.072L136.887 110.367L149.053 104.34L161.219 98.3135Z" fill="white" stroke="white" stroke-width="0.755906" stroke-miterlimit="22.9256"/>
<path d="M0.505859 197.852L2.8158 196.471C4.43994 199.459 6.31734 200.953 8.44796 200.954C9.35938 200.955 10.2154 200.746 11.0162 200.329C11.8169 199.899 12.4269 199.327 12.8459 198.614C13.2651 197.902 13.4748 197.146 13.4752 196.347C13.4757 195.437 13.1683 194.546 12.5529 193.672C11.7038 192.468 10.1527 191.016 7.89978 189.318C5.63454 187.608 4.22502 186.372 3.67119 185.61C2.71122 184.331 2.23162 182.948 2.23239 181.46C2.233 180.28 2.51682 179.205 3.08385 178.234C3.65088 177.263 4.44564 176.501 5.46814 175.948C6.50294 175.383 7.62387 175.102 8.83078 175.102C10.1117 175.103 11.3061 175.423 12.4142 176.063C13.5346 176.69 14.7163 177.853 15.9594 179.55L13.7416 181.227C12.7202 179.874 11.8462 178.982 11.1198 178.551C10.4057 178.121 9.62375 177.905 8.77393 177.905C7.67783 177.904 6.7786 178.236 6.07625 178.899C5.38622 179.563 5.04096 180.38 5.04045 181.352C5.04015 181.941 5.16301 182.513 5.40905 183.066C5.65508 183.619 6.10429 184.222 6.75672 184.874C7.11368 185.219 8.28324 186.122 10.2653 187.587C12.6167 189.321 14.2293 190.865 15.1031 192.217C15.9768 193.57 16.4133 194.928 16.4126 196.293C16.4116 198.26 15.6594 199.968 14.1562 201.418C12.6652 202.868 10.8482 203.592 8.70527 203.592C7.0549 203.59 5.55878 203.154 4.2168 202.28C2.87484 201.394 1.63785 199.918 0.505859 197.852ZM23.9976 175.405L26.6024 175.407L26.5986 182.856L30.6997 182.858L30.6986 185.071L26.5974 185.069L26.5882 202.919L23.9834 202.917L23.9927 185.068L20.4641 185.066L20.4653 182.853L23.9937 182.855L23.9976 175.405ZM54.5864 182.87L54.576 202.933L52.0266 202.931L52.0284 199.483C50.9439 200.798 49.7241 201.787 48.3691 202.45C47.0262 203.113 45.5543 203.444 43.9533 203.444C41.1083 203.442 38.6765 202.414 36.6577 200.36C34.6513 198.294 33.6489 195.785 33.6504 192.835C33.6519 189.947 34.6692 187.476 36.7024 185.424C38.7356 183.372 41.1808 182.347 44.0381 182.349C45.6884 182.349 47.1784 182.7 48.5082 183.402C49.8503 184.103 51.0259 185.155 52.035 186.557L52.037 182.869L54.5864 182.87ZM44.24 184.838C42.7991 184.837 41.4688 185.193 40.2491 185.905C39.0295 186.605 38.056 187.595 37.3287 188.873C36.6137 190.151 36.2559 191.503 36.2552 192.929C36.2545 194.342 36.6171 195.695 37.343 196.986C38.069 198.278 39.0414 199.286 40.2603 200.012C41.4915 200.725 42.8091 201.083 44.2132 201.084C45.6295 201.084 46.9721 200.728 48.241 200.016C49.5099 199.304 50.4833 198.339 51.1613 197.122C51.8516 195.906 52.1972 194.535 52.198 193.011C52.1992 190.687 51.4304 188.745 49.8918 187.182C48.3654 185.621 46.4815 184.839 44.24 184.838ZM58.2626 182.872L60.9967 182.873L67.8981 198.329L74.6119 182.88L77.3646 182.882L65.361 210.277L62.6268 210.276L66.5108 201.427L58.2626 182.872ZM88.9313 178.462L88.9326 175.825L103.841 175.833L103.84 178.47L97.7805 178.467L97.7677 202.955L94.9963 202.954L95.0092 178.465L88.9313 178.462ZM106.331 182.897L108.973 182.898L108.972 185.83C109.76 184.675 110.592 183.815 111.467 183.25C112.342 182.673 113.253 182.384 114.201 182.385C114.916 182.385 115.679 182.613 116.492 183.068L115.142 185.243C114.601 185.009 114.145 184.893 113.775 184.892C112.913 184.892 112.081 185.248 111.281 185.96C110.48 186.66 109.87 187.754 109.45 189.242C109.129 190.385 108.968 192.696 108.966 196.175L108.963 202.961L106.321 202.959L106.331 182.897ZM118.357 182.903L120.963 182.905L120.958 192.272C120.957 194.558 121.079 196.132 121.325 196.993C121.694 198.222 122.395 199.193 123.429 199.907C124.476 200.62 125.719 200.978 127.161 200.978C128.602 200.979 129.821 200.636 130.819 199.948C131.829 199.248 132.525 198.332 132.908 197.202C133.167 196.427 133.297 194.786 133.298 192.278L133.303 182.911L135.945 182.912L135.94 192.759C135.939 195.525 135.611 197.608 134.957 199.01C134.316 200.41 133.343 201.51 132.037 202.309C130.743 203.095 129.118 203.487 127.159 203.487C125.201 203.485 123.563 203.091 122.246 202.304C120.941 201.504 119.962 200.397 119.31 198.983C118.671 197.556 118.351 195.418 118.353 192.566L118.357 182.903ZM158.624 196.329L160.803 197.474C160.088 198.875 159.262 200.006 158.326 200.866C157.389 201.725 156.336 202.382 155.165 202.837C153.996 203.279 152.671 203.499 151.194 203.499C147.918 203.497 145.356 202.426 143.51 200.286C141.664 198.134 140.741 195.705 140.743 193.001C140.744 190.457 141.527 188.189 143.092 186.198C145.077 183.667 147.731 182.402 151.057 182.404C154.48 182.405 157.214 183.704 159.257 186.299C160.709 188.131 161.447 190.418 161.47 193.159L143.403 193.15C143.451 195.486 144.195 197.404 145.635 198.905C147.075 200.392 148.855 201.137 150.973 201.139C151.996 201.139 152.987 200.961 153.948 200.605C154.921 200.249 155.746 199.776 156.424 199.186C157.101 198.597 157.835 197.645 158.624 196.329ZM158.627 190.927C158.283 189.55 157.778 188.449 157.114 187.625C156.461 186.801 155.593 186.137 154.51 185.632C153.426 185.128 152.287 184.875 151.092 184.875C149.122 184.874 147.428 185.506 146.011 186.771C144.976 187.693 144.194 189.075 143.663 190.919L158.627 190.927ZM203.45 180.439L201.342 182.429C199.828 180.941 198.166 179.816 196.356 179.052C194.559 178.277 192.804 177.889 191.092 177.888C188.961 177.887 186.929 178.408 184.995 179.452C183.073 180.496 181.582 181.915 180.522 183.71C179.462 185.492 178.931 187.378 178.93 189.37C178.929 191.41 179.476 193.353 180.571 195.197C181.666 197.03 183.181 198.475 185.113 199.533C187.047 200.579 189.165 201.103 191.468 201.104C194.263 201.105 196.629 200.319 198.563 198.747C200.497 197.175 201.643 195.135 202.002 192.627L193.338 192.623L193.339 190.004L205.052 190.01C205.025 194.202 203.773 197.533 201.296 200.002C198.831 202.46 195.531 203.688 191.393 203.685C186.368 203.683 182.39 201.972 179.461 198.553C177.209 195.921 176.083 192.878 176.085 189.424C176.086 186.855 176.734 184.464 178.029 182.251C179.323 180.039 181.097 178.313 183.351 177.072C185.606 175.82 188.155 175.195 191.001 175.196C193.304 175.197 195.471 175.616 197.503 176.453C199.535 177.278 201.517 178.606 203.45 180.439ZM226.718 196.364L228.897 197.509C228.183 198.91 227.357 200.041 226.42 200.9C225.484 201.761 224.43 202.418 223.26 202.872C222.09 203.314 220.766 203.535 219.288 203.534C216.012 203.532 213.451 202.461 211.605 200.321C209.758 198.169 208.836 195.741 208.837 193.036C208.838 190.491 209.622 188.224 211.187 186.233C213.171 183.702 215.825 182.437 219.151 182.438C222.575 182.44 225.308 183.739 227.351 186.334C228.804 188.166 229.542 190.453 229.565 193.195L211.497 193.185C211.545 195.521 212.289 197.439 213.73 198.939C215.17 200.428 216.949 201.173 219.067 201.173C220.09 201.174 221.081 200.996 222.042 200.64C223.015 200.284 223.84 199.812 224.518 199.222C225.196 198.632 225.929 197.679 226.718 196.364ZM226.721 190.962C226.377 189.585 225.873 188.484 225.208 187.66C224.555 186.836 223.688 186.172 222.604 185.667C221.52 185.163 220.381 184.91 219.186 184.909C217.216 184.909 215.523 185.541 214.105 186.807C213.07 187.728 212.288 189.11 211.757 190.954L226.721 190.962ZM234.41 182.963L236.997 182.964L236.995 186.56C238.03 185.184 239.176 184.157 240.432 183.482C241.689 182.795 243.056 182.451 244.534 182.452C246.036 182.452 247.367 182.834 248.523 183.597C249.693 184.36 250.555 185.387 251.109 186.678C251.662 187.969 251.938 189.979 251.936 192.708L251.931 203.034L249.363 203.033L249.369 193.462C249.37 191.152 249.272 189.609 249.075 188.834C248.768 187.507 248.19 186.511 247.34 185.846C246.491 185.169 245.382 184.831 244.016 184.83C242.451 184.829 241.047 185.345 239.803 186.377C238.571 187.409 237.757 188.687 237.362 190.211C237.115 191.207 236.991 193.026 236.99 195.669L236.986 203.027L234.4 203.025L234.41 182.963ZM259.76 175.526L262.365 175.528L262.361 182.977L266.462 182.98L266.461 185.192L262.36 185.19L262.351 203.04L259.746 203.038L259.755 185.189L256.227 185.187L256.227 182.974L259.756 182.976L259.76 175.526ZM269.939 175.236L272.526 175.237L272.511 203.045L269.925 203.043L269.939 175.236ZM294.813 196.4L296.992 197.544C296.277 198.945 295.451 200.075 294.514 200.936C293.578 201.796 292.524 202.453 291.355 202.907C290.184 203.349 288.86 203.569 287.382 203.569C284.106 203.567 281.545 202.496 279.699 200.357C277.853 198.204 276.93 195.776 276.931 193.071C276.933 190.526 277.716 188.259 279.281 186.268C281.265 183.737 283.92 182.472 287.245 182.474C290.669 182.476 293.402 183.774 295.445 186.368C296.898 188.201 297.636 190.488 297.659 193.229L279.592 193.22C279.64 195.556 280.383 197.474 281.824 198.974C283.264 200.463 285.043 201.207 287.161 201.208C288.184 201.209 289.176 201.031 290.136 200.675C291.11 200.319 291.935 199.846 292.612 199.257C293.29 198.667 294.023 197.715 294.813 196.4ZM294.815 190.997C294.471 189.619 293.967 188.519 293.302 187.695C292.65 186.871 291.782 186.207 290.698 185.702C289.615 185.198 288.476 184.945 287.281 184.945C285.31 184.943 283.617 185.576 282.199 186.841C281.164 187.763 280.382 189.146 279.852 190.989L294.815 190.997ZM302.486 182.998L305.054 182.999L305.052 186.466C305.952 185.188 306.876 184.254 307.824 183.664C309.13 182.878 310.504 182.486 311.944 182.486C312.918 182.487 313.841 182.678 314.715 183.06C315.59 183.441 316.304 183.951 316.858 184.591C317.411 185.218 317.891 186.122 318.297 187.302C319.16 185.729 320.239 184.537 321.532 183.727C322.825 182.904 324.218 182.493 325.708 182.493C327.099 182.494 328.324 182.845 329.384 183.546C330.455 184.248 331.248 185.225 331.765 186.48C332.281 187.734 332.539 189.615 332.538 192.123L332.532 203.075L329.891 203.074L329.896 192.121C329.897 189.97 329.744 188.495 329.437 187.695C329.129 186.884 328.6 186.232 327.849 185.74C327.11 185.248 326.223 185.002 325.189 185.001C323.933 185 322.781 185.369 321.734 186.106C320.699 186.842 319.941 187.825 319.46 189.055C318.979 190.284 318.738 192.336 318.737 195.213L318.733 203.068L316.165 203.067L316.17 192.796C316.171 190.375 316.018 188.734 315.71 187.873C315.415 187 314.892 186.305 314.142 185.788C313.39 185.259 312.498 184.995 311.463 184.994C310.268 184.993 309.147 185.355 308.1 186.08C307.065 186.792 306.295 187.757 305.79 188.974C305.296 190.191 305.049 192.053 305.048 194.561L305.043 203.061L302.475 203.06L302.486 182.998ZM358.037 183.026L358.026 203.089L355.477 203.088L355.478 199.639C354.394 200.954 353.174 201.943 351.819 202.606C350.477 203.269 349.005 203.601 347.404 203.6C344.559 203.598 342.127 202.571 340.108 200.517C338.101 198.45 337.099 195.942 337.1 192.992C337.102 190.102 338.119 187.632 340.153 185.581C342.186 183.529 344.631 182.503 347.488 182.504C349.139 182.506 350.629 182.857 351.958 183.558C353.301 184.259 354.476 185.311 355.485 186.713L355.487 183.025L358.037 183.026ZM347.69 184.994C346.249 184.993 344.919 185.349 343.699 186.062C342.479 186.762 341.506 187.751 340.779 189.029C340.064 190.307 339.706 191.659 339.706 193.085C339.705 194.499 340.067 195.851 340.793 197.143C341.519 198.434 342.492 199.442 343.71 200.168C344.942 200.882 346.26 201.239 347.663 201.24C349.08 201.24 350.422 200.884 351.691 200.172C352.96 199.46 353.933 198.495 354.611 197.278C355.302 196.062 355.647 194.691 355.648 193.167C355.649 190.843 354.88 188.901 353.342 187.339C351.816 185.777 349.932 184.995 347.69 184.994ZM363.874 183.03L366.46 183.031L366.459 186.627C367.494 185.25 368.64 184.224 369.897 183.549C371.153 182.861 372.52 182.518 373.998 182.518C375.501 182.519 376.83 182.901 377.988 183.664C379.157 184.426 380.019 185.453 380.573 186.744C381.126 188.036 381.402 190.045 381.401 192.775L381.395 203.101L378.827 203.1L378.832 193.529C378.834 191.218 378.736 189.675 378.539 188.901C378.232 187.573 377.654 186.577 376.804 185.912C375.955 185.236 374.846 184.897 373.48 184.897C371.915 184.896 370.511 185.412 369.266 186.443C368.034 187.476 367.221 188.754 366.826 190.278C366.579 191.273 366.455 193.093 366.454 195.735L366.45 203.093L363.864 203.092L363.874 183.03Z" fill="white"/>
</g>
<defs>
<clipPath id="clip0_102_149">
<rect width="385" height="212" fill="white"/>
</clipPath>
</defs>
</svg>
